#!OML:ASF I:\Actors\actors\Patient Classification 2\Patient 1\Session 1\actor1.ASF
:FULLY-SPECIFIED
:DEGREES
379
root -0.372558 18.607 6.12257 -1.28693 8.24626 -2.76914
lowerback 12.8781 1.17355 3.9444
upperback -3.0559 2.34381 1.03018
thorax -10.4569 0.90972 -1.61834
lowerneck -8.27046 -4.35624 -0.460218
upperneck 6.36631 -5.60374 -2.14159
head 3.47256 -2.88093 -0.933289
rclavicle 7.42336e-015 -7.95139e-015
rhumerus -10.9649 4.80789 -34.9423
rradius 108.37
rwrist -65.6786
rhand 8.19286 -58.4539
rfingers 7.12502
rthumb 33.4104 -85.3667
lclavicle 7.42336e-015 -7.95139e-015
lhumerus -50.7803 3.97395 83.3976
lradius 47.5393
lwrist -3.10166
lhand -8.7776 -22.15
lfingers 7.12502
lthumb 17.1605 7.11218
rfemur 0 0 0
rtibia 0
rfoot 0 0
rtoes 0
lfemur -6.40946 -3.80535 -11.8248
ltibia 27.499
lfoot -20.2552 3.19249
ltoes -57.4113
380
root -0.362498 18.603 6.1295 -1.39234 8.29915 -2.67705
lowerback 12.8325 1.19075 3.7728
upperback -3.09086 2.3334 0.99592
thorax -10.474 0.913618 -1.55573
lowerneck -8.25031 -4.36189 -0.515988
upperneck 6.50173 -5.60472 -2.12547
head 3.51819 -2.88264 -0.921094
rclavicle -1.22936e-014 -2.78299e-015
rhumerus -11.5001 4.52992 -35.3249
rradius 108.287
rwrist -65.6418
rhand 8.2555 -58.6488
rfingers 7.12502
rthumb 33.4699 -85.5487
lclavicle -1.22936e-014 -2.78299e-015
lhumerus -50.9768 4.04963 83.2712
lradius 47.4606
lwrist -3.09621
lhand -8.85741 -22.021
lfingers 7.12502
lthumb 17.0837 7.24783
rfemur 0 0 0
rtibia 0
rfoot 0 0
rtoes 0
lfemur -6.33433 -3.78624 -11.966
ltibia 27.6285
lfoot -20.3284 3.1629
ltoes -57.5141
381
root -0.354278 18.5981 6.13869 -1.50821 8.35921 -2.6495
lowerback 12.757 1.20749 3.71536
upperback -3.11603 2.33663 0.930585
thorax -10.4563 0.916574 -1.59274
lowerneck -8.25744 -4.36078 -0.670961
upperneck 6.68239 -5.59911 -1.92866
head 3.59379 -2.87592 -0.834193
rclavicle -3.95395e-014 -6.55989e-015
rhumerus -12.0828 4.16307 -35.7756
rradius 108.161
rwrist -65.5027
rhand 8.4476 -58.8282
rfingers 7.12502
rthumb 33.6525 -85.6884
lclavicle -3.95395e-014 -6.55989e-015
lhumerus -51.108 4.11215 83.0758
lradius 47.3551
lwrist -3.18072
lhand -8.79932 -21.8596
lfingers 7.12502
lthumb 17.1396 7.40441
rfemur 0 0 0
rtibia 0
rfoot 0 0
rtoes 0
lfemur -6.22431 -3.80083 -12.0242
ltibia 27.7295
lfoot -20.4086 3.03134
ltoes -57.4044
382
root -0.348706 18.5944 6.14939 -1.63768 8.38125 -2.70168
lowerback 12.7085 1.21169 3.67913
upperback -3.17071 2.33417 0.914405
thorax -10.4893 0.915853 -1.5886
lowerneck -8.1724 -4.32422 -0.846766
upperneck 6.8117 -5.54335 -1.76298
head 3.63362 -2.84593 -0.74686
rclavicle -1.6729e-014 5.06901e-015
rhumerus -12.5933 3.90676 -36.1946
rradius 107.982
rwrist -65.2867
rhand 8.75763 -58.8092
rfingers 7.12502
rthumb 33.9471 -85.6047
lclavicle -1.6729e-014 5.06901e-015
lhumerus -51.2419 4.38707 82.7971
lradius 47.1259
lwrist -3.43455
lhand -8.6765 -21.9118
lfingers 7.12502
lthumb 17.2578 7.3419
rfemur 0 0 0
rtibia 0
rfoot 0 0
rtoes 0
lfemur -6.05792 -3.79677 -11.9806
ltibia 27.7461
lfoot -20.4831 2.92067
ltoes -57.3233
383
root -0.33983 18.5921 6.1577 -1.74027 8.36004 -2.73437
lowerback 12.6726 1.22424 3.6217
upperback -3.25377 2.34208 0.908341
thorax -10.5621 0.920649 -1.5646
lowerneck -8.10218 -4.2886 -0.931464
upperneck 6.96591 -5.48386 -1.77992
head 3.67665 -2.82008 -0.735798
rclavicle 6.15176e-014 1.05356e-014
rhumerus -13.0919 3.69607 -36.56
rradius 107.825
rwrist -65.0993
rhand 9.01341 -58.8871
rfingers 7.12502
rthumb 34.19 -85.6285
lclavicle 6.15176e-014 1.05356e-014
lhumerus -51.4046 4.67203 82.528
lradius 46.8663
lwrist -3.68117
lhand -8.53392 -22.0731
lfingers 7.12502
lthumb 17.395 7.1685
rfemur 0 0 0
rtibia 0
rfoot 0 0
rtoes 0
lfemur -5.92228 -3.74559 -11.9732
ltibia 27.7659
lfoot -20.5081 2.83623
ltoes -57.2684
384
root -0.326255 18.5893 6.16528 -1.82908 8.34334 -2.71336
lowerback 12.5907 1.24303 3.56195
upperback -3.30826 2.35299 0.885798
thorax -10.575 0.928148 -1.55589
lowerneck -8.14767 -4.25724 -0.97647
upperneck 7.18743 -5.42439 -1.88311
head 3.7625 -2.79772 -0.764904
rclavicle -1.57164e-015 1.26228e-014
rhumerus -13.8566 3.26675 -37.0658
rradius 107.82
rwrist -64.7954
rhand 9.28095 -59.1865
rfingers 7.12502
rthumb 34.444 -85.8705
lclavicle -1.57164e-015 1.26228e-014
lhumerus -51.5224 4.90517 82.3239
lradius 46.6655
lwrist -3.85433
lhand -8.49947 -22.0448
lfingers 7.12502
lthumb 17.4282 7.1939
rfemur 0 0 0
rtibia 0
rfoot 0 0
rtoes 0
lfemur -5.75228 -3.70961 -12.0451
ltibia 27.7008
lfoot -20.5015 2.75805
ltoes -57.1591
385
root -0.314539 18.5854 6.1736 -1.9242 8.34167 -2.67982
lowerback 12.4774 1.26283 3.45284
upperback -3.32587 2.35697 0.888661
thorax -10.5315 0.938224 -1.48898
lowerneck -8.2223 -4.22145 -1.01723
upperneck 7.38373 -5.357 -2.00508
head 3.84491 -2.77237 -0.800862
rclavicle 1.00635e-014 -8.94531e-016
rhumerus -15.0802 2.49874 -37.87
rradius 108.064
rwrist -64.0602
rhand 9.75137 -59.4409
rfingers 7.12502
rthumb 34.8905 -86.0225
lclavicle 1.00635e-014 -8.94531e-016
lhumerus -51.5638 5.21564 82.1453
lradius 46.4408
lwrist -4.04729
lhand -8.54902 -21.9934
lfingers 7.12502
lthumb 17.3805 7.24953
rfemur 0 0 0
rtibia 0
rfoot 0 0
rtoes 0
lfemur -5.56188 -3.66857 -12.1167
ltibia 27.5928
lfoot -20.5077 2.70231
ltoes -57.1521
386
root -0.324079 18.5876 6.19281 -1.73487 8.23937 -2.00801
lowerback 12.0676 1.41634 2.34206
upperback -3.36443 2.35385 0.767526
thorax -10.3672 1.00703 -0.982053
lowerneck -8.25512 -4.21955 -0.988812
upperneck 7.52461 -5.3485 -2.08276
head 3.89835 -2.77183 -0.835196
rclavicle 4.46334e-014 2.08724e-015
rhumerus -14.7009 2.70593 -37.6692
rradius 107.532
rwrist -64.262
rhand 9.28224 -59.2242
rfingers 7.12502
rthumb 34.4453 -85.908
lclavicle 4.46334e-014 2.08724e-015
lhumerus -51.5822 5.4863 81.917
lradius 46.2173
lwrist -4.24927
lhand -8.52153 -22.0503
lfingers 7.12502
lthumb 17.407 7.19023
rfemur 0 0 0
rtibia 0
rfoot 0 0
rtoes 0
lfemur -5.53788 -3.64031 -12.8277
ltibia 27.4442
lfoot -20.5363 2.83124
ltoes -57.2061
387
root -0.319411 18.586 6.20587 -1.71131 8.17828 -1.69435
lowerback 11.8543 1.49084 1.87734
upperback -3.39783 2.36219 0.650076
thorax -10.2904 1.03757 -0.842614
lowerneck -8.28646 -4.2241 -0.96669
upperneck 7.68115 -5.35687 -2.0602
head 3.96023 -2.77515 -0.836684
rclavicle 2.20775e-014 1.12313e-014
rhumerus -14.9606 2.5853 -37.8843
rradius 107.337
rwrist -63.9534
rhand 9.17244 -59.319
rfingers 7.12502
rthumb 34.341 -86.0264
lclavicle 2.20775e-014 1.12313e-014
lhumerus -51.6521 5.55915 81.7171
lradius 46.1085
lwrist -4.31436
lhand -8.47665 -22.1065
lfingers 7.12502
lthumb 17.4502 7.13023
rfemur 0 0 0
rtibia 0
rfoot 0 0
rtoes 0
lfemur -5.38533 -3.65004 -13.1976
ltibia 27.3034
lfoot -20.5388 2.88132
ltoes -57.1074
388
root -0.308951 18.5827 6.21413 -1.79086 8.15846 -1.62044
lowerback 11.7761 1.51731 1.76939
upperback -3.42461 2.37394 0.596966
thorax -10.2754 1.04828 -0.839356
lowerneck -8.28197 -4.19246 -0.888414
upperneck 7.75875 -5.31459 -2.15177
head 3.98223 -2.75668 -0.879797
rclavicle 1.18122e-014 9.59136e-015
rhumerus -15.4415 2.34605 -38.1998
rradius 107.24
rwrist -63.434
rhand 9.27628 -59.555
rfingers 7.12502
rthumb 34.4396 -86.2401
lclavicle 1.18122e-014 9.59136e-015
lhumerus -51.7398 5.62841 81.5733
lradius 46.0274
lwrist -4.36467
lhand -8.44781 -22.2148
lfingers 7.12502
lthumb 17.4779 7.01947
rfemur 0 0 0
rtibia 0
rfoot 0 0
rtoes 0
lfemur -5.17358 -3.61427 -13.3128
ltibia 27.1611
lfoot -20.4665 2.80203
ltoes -56.9155
389
root -0.298188 18.58 6.22149 -1.893 8.12641 -1.56962
lowerback 11.7152 1.54163 1.67084
upperback -3.43505 2.38812 0.580375
thorax -10.2539 1.06108 -0.802843
lowerneck -8.26816 -4.12958 -0.851001
upperneck 7.789 -5.22554 -2.24877
head 3.98714 -2.71633 -0.913483
rclavicle 2.99171e-014 2.98177e-015
rhumerus -15.8278 2.16265 -38.4
rradius 107.098
rwrist -63.0318
rhand 9.30121 -59.5875
rfingers 7.12502
rthumb 34.4633 -86.2672
lclavicle 2.99171e-014 2.98177e-015
lhumerus -51.8033 5.79914 81.4274
lradius 45.9235
lwrist -4.50454
lhand -8.43235 -22.3255
lfingers 7.12502
lthumb 17.4928 6.90744
rfemur 0 0 0
rtibia 0
rfoot 0 0
rtoes 0
lfemur -4.99354 -3.55258 -13.4026
ltibia 27.1084
lfoot -20.4508 2.72924
ltoes -56.8175
390
root -0.285928 18.5778 6.22921 -1.97665 8.08351 -1.50434
lowerback 11.6066 1.56207 1.55636
upperback -3.44245 2.39353 0.562949
thorax -10.2016 1.07116 -0.754866
lowerneck -8.30775 -4.08376 -0.933678
upperneck 7.91656 -5.15254 -2.23679
head 4.04414 -2.68304 -0.89497
rclavicle 1.97138e-014 5.66536e-015
rhumerus -16.4625 1.88688 -38.6934
rradius 107.113
rwrist -62.5602
rhand 9.43119 -59.6579
rfingers 7.12502
rthumb 34.5866 -86.3095
lclavicle 1.97138e-014 5.66536e-015
lhumerus -51.8596 5.93613 81.3199
lradius 45.8606
lwrist -4.6093
lhand -8.46316 -22.3291
lfingers 7.12502
lthumb 17.4631 6.90653
rfemur 0 0 0
rtibia 0
rfoot 0 0
rtoes 0
lfemur -4.84841 -3.50785 -13.5198
ltibia 27.1034
lfoot -20.4929 2.71107
ltoes -56.819
391
root -0.272593 18.5739 6.23701 -2.07408 8.03699 -1.48565
lowerback 11.4953 1.5678 1.51124
upperback -3.44464 2.38968 0.541017
thorax -10.1392 1.07234 -0.748662
lowerneck -8.36913 -4.06029 -1.00544
upperneck 8.09547 -5.11446 -2.17541
head 4.12477 -2.66466 -0.865754
rclavicle 1.76887e-014 6.4605e-016
rhumerus -17.6731 1.33854 -39.2941
rradius 107.445
rwrist -61.6843
rhand 9.89885 -59.9345
rfingers 7.12502
rthumb 35.0304 -86.4834
lclavicle 1.76887e-014 6.4605e-016
lhumerus -51.9025 5.96301 81.2663
lradius 45.8326
lwrist -4.60139
lhand -8.5091 -22.2676
lfingers 7.12502
lthumb 17.4189 6.97194
rfemur 0 0 0
rtibia 0
rfoot 0 0
rtoes 0
lfemur -4.69126 -3.44518 -13.5888
ltibia 27.1025
lfoot -20.5225 2.65858
ltoes -56.8141
392
root -0.258631 18.5684 6.2438 -2.19699 7.98109 -1.4717
lowerback 11.4244 1.56795 1.50562
upperback -3.44347 2.38344 0.499813
thorax -10.0945 1.06886 -0.786124
lowerneck -8.42428 -4.02947 -1.08381
upperneck 8.26983 -5.0739 -2.0331
head 4.20523 -2.64119 -0.807763
rclavicle -1.73346e-014 1.93815e-015
rhumerus -17.2283 1.69188 -39.0914
rradius 106.881
rwrist -61.5916
rhand 9.46553 -59.8997
rfingers 7.12502
rthumb 34.6192 -86.5438
lclavicle -1.73346e-014 1.93815e-015
lhumerus -51.9306 5.95474 81.1823
lradius 45.7792
lwrist -4.5985
lhand -8.57174 -22.2406
lfingers 7.12502
lthumb 17.3586 7.00426
rfemur 0 0 0
rtibia 0
rfoot 0 0
rtoes 0
lfemur -4.50494 -3.37782 -13.6571
ltibia 27.0955
lfoot -20.5722 2.62166
ltoes -56.8255
393
root -0.245669 18.5652 6.24969 -2.28322 7.91508 -1.38957
lowerback 11.3239 1.56595 1.41032
upperback -3.44159 2.35893 0.447092
thorax -10.035 1.06203 -0.780935
lowerneck -8.48566 -3.9926 -1.1442
upperneck 8.43139 -5.02741 -1.89513
head 4.28193 -2.61427 -0.753599
rclavicle 1.6437e-014 1.06847e-014
rhumerus -17.2617 1.72775 -39.2193
rradius 106.595
rwrist -61.1913
rhand 9.16921 -59.7206
rfingers 7.12502
rthumb 34.3379 -86.4287
lclavicle 1.6437e-014 1.06847e-014
lhumerus -51.9796 5.98417 81.0559
lradius 45.7638
lwrist -4.66535
lhand -8.60936 -22.2713
lfingers 7.12502
lthumb 17.3224 6.97676
rfemur 0 0 0
rtibia 0
rfoot 0 0
rtoes 0
lfemur -4.34756 -3.30576 -13.7909
ltibia 27.0797
lfoot -20.6322 2.62817
ltoes -56.8563
394
root -0.234331 18.5639 6.25664 -2.35123 7.81117 -1.3377
lowerback 11.1952 1.55918 1.30436
upperback -3.42904 2.3285 0.420455
thorax -9.94881 1.05435 -0.739527
lowerneck -8.57326 -3.93599 -1.15844
upperneck 8.56462 -4.95855 -1.77547
head 4.35206 -2.57551 -0.71206
rclavicle 4.75445e-014 1.74682e-014
rhumerus -17.476 1.6303 -39.4705
rradius 106.454
rwrist -60.9213
rhand 9.04582 -59.6166
rfingers 7.12502
rthumb 34.2208 -86.3511
lclavicle 4.75445e-014 1.74682e-014
lhumerus -52.02 6.03353 80.9554
lradius 45.7862
lwrist -4.70926
lhand -8.5733 -22.2919
lfingers 7.12502
lthumb 17.3571 6.95313
rfemur 0 0 0
rtibia 0
rfoot 0 0
rtoes 0
lfemur -4.19529 -3.22997 -13.8825
ltibia 27.0477
lfoot -20.6614 2.61815
ltoes -56.7906
